<?xml version="1.0" encoding="UTF-8"?>
<!DOCTYPE svg PUBLIC "-//W3C//DTD SVG 1.1//EN" "http://www.w3.org/Graphics/SVG/1.1/DTD/svg11.dtd">
<svg version="1.1" id="Layer_1" xmlns="http://www.w3.org/2000/svg" xmlns:xlink="http://www.w3.org/1999/xlink" x="0px" y="0px" width="32px" height="32px" viewBox="0 0 32 32" enable-background="new 0 0 32 32" xml:space="preserve">
  <g id="main">
    <g id="icon">
      <path d="M0.5,28.5L17.5,28.5L17.5,16.83L18.51,16.13L19.53,15.56L20.09,15.3L20.65,15.1L21.7,14.84L22.88,14.66L24.16,14.54L25.5,14.5L26.84,14.54L28.12,14.66L29.3,14.84L29.5,14.89L29.5,6.5L0.5,6.5zz" fill="#FFFFFF"/>
      <path d="M0,6.5L0,28.5L0,29L0.5,29L17.51,29L17.5,28.91L17.5,28L1,28L1,7L29,7L29,14.8L29.3,14.84L30,15.02L30,6.5L30,6L29.5,6L0.5,6L0,6zz" fill="#383838"/>
      <path d="M0.5,6.5L29.5,6.5L29.5,1.5L0.5,1.5zz" fill="#92CBEE"/>
      <path d="M0,1.5L0,6.5L0,7L0.5,7L29.5,7L30,7L30,6.5L30,1.5L30,1L29.5,1L0.5,1L0,1zM29,2L29,6L1,6L1,2zz" fill="#0964B0"/>
      <path d="M5,9.5L5,13L5,13.5L5,14L5,17L5,17.5L5,18L5,21L5,21.5L5,22L5,25.5L5,26L5.5,26L12,26L12.5,26L13,26L17.5,26L17.5,25L13,25L13,22L17.5,22L17.5,21L13,21L13,18L17.5,18L17.5,17L13,17L13,14L18,14L18,16.48L18.51,16.13L19,15.86L19,14L24,14L24,14.55L24.16,14.54L25,14.51L25,14L25,13.5L25,13L25,9.5L25,9L24.5,9L19,9L18.5,9L18,9L13,9L12.5,9L12,9L5.5,9L5,9zM12,10L12,13L6,13L6,10zM18,10L18,13L13,13L13,10zM24,10L24,13L19,13L19,10zM12,14L12,17L6,17L6,14zM12,18L12,21L6,21L6,18zM12,22L12,25L6,25L6,22zz" fill="#787979" opacity="0.7"/>
      <path d="M6,13L12,13L12,10L6,10zM13,13L18,13L18,10L13,10zM19,13L24,13L24,10L19,10zM6,17L12,17L12,14L6,14zM6,21L12,21L12,18L6,18zM6,25L12,25L12,22L6,22zz" fill="#78797A" opacity="0.15"/>
    </g>
    <g id="overlay">
      <path d="M31.5,18.328v10.586c0,1.428,-2.686,2.586,-6,2.586s-6,-1.158,-6,-2.586V18.328" fill="#F7DA8E" stroke="#E57428" stroke-width="1" stroke-linecap="round" stroke-miterlimit="10"/>
      <ellipse cx="25.5" cy="18.224" rx="6" ry="1.724" fill="#F7DA8E" stroke="#E57428" stroke-width="1" stroke-linecap="round" stroke-miterlimit="10"/>
    </g>
  </g>
</svg>
