<?xml version="1.0" encoding="UTF-8"?>
<!DOCTYPE svg PUBLIC "-//W3C//DTD SVG 1.1//EN" "http://www.w3.org/Graphics/SVG/1.1/DTD/svg11.dtd">
<svg version="1.1" id="Layer_1" xmlns="http://www.w3.org/2000/svg" xmlns:xlink="http://www.w3.org/1999/xlink" x="0px" y="0px" width="32px" height="32px" viewBox="0 0 32 32" enable-background="new 0 0 32 32" xml:space="preserve">
  <g id="main">
    <g id="icon">
      <path d="M3.699,4.531L3.418,4.618L3.163,4.757L2.941,4.941L2.757,5.163L2.618,5.418L2.531,5.699L2.5,6L2.5,18.88L8.115,15.87L8.117,15.87L12.05,13.76L21.97,18.55L19.21,20.23L21.77,21.64L19.2,23.21L21.83,24.61L18.71,26.5L30,26.5L30.3,26.47L30.58,26.38L30.84,26.24L31.06,26.06L31.24,25.84L31.38,25.58L31.47,25.3L31.5,25L31.5,6L31.47,5.699L31.38,5.418L31.24,5.163L31.06,4.941L30.84,4.757L30.58,4.618L30.3,4.531L30,4.5L4,4.5zz" fill="#FFFFFF"/>
      <path d="M3.949,4.003L3.648,4.033L3.598,4.038L3.55,4.053L3.269,4.141L3.222,4.156L3.179,4.179L2.924,4.318L2.881,4.341L2.844,4.371L2.622,4.555L2.586,4.586L2.555,4.622L2.371,4.844L2.341,4.881L2.318,4.924L2.179,5.179L2.156,5.222L2.141,5.269L2.053,5.55L2.038,5.598L2.033,5.648L2.003,5.949L2,5.975L2,6L2,19.15L3,18.61L3,6.026L3.023,5.799L3.081,5.613L3.173,5.444L3.296,5.296L3.444,5.173L3.613,5.081L3.799,5.023L4.026,5L29.97,5L30.2,5.023L30.39,5.081L30.56,5.173L30.7,5.296L30.83,5.444L30.92,5.613L30.98,5.799L31,6.026L31,24.97L30.98,25.2L30.92,25.39L30.83,25.56L30.7,25.7L30.56,25.83L30.39,25.92L30.2,25.98L29.97,26L19.53,26L17.89,27L30,27L30.03,27L30.05,27L30.35,26.97L30.4,26.96L30.45,26.95L30.73,26.86L30.78,26.84L30.82,26.82L31.08,26.68L31.12,26.66L31.16,26.63L31.38,26.44L31.41,26.41L31.44,26.38L31.63,26.16L31.66,26.12L31.68,26.08L31.82,25.82L31.84,25.78L31.86,25.73L31.95,25.45L31.96,25.4L31.97,25.35L32,25.05L32,25.03L32,25L32,6L32,5.975L32,5.949L31.97,5.648L31.96,5.598L31.95,5.55L31.86,5.269L31.84,5.222L31.82,5.179L31.68,4.924L31.66,4.881L31.63,4.844L31.44,4.622L31.41,4.586L31.38,4.555L31.16,4.371L31.12,4.341L31.08,4.318L30.82,4.179L30.78,4.156L30.73,4.141L30.45,4.053L30.4,4.038L30.35,4.033L30.05,4.003L30.03,4L30,4L4,4L3.975,4zz" fill="#383838"/>
      <path d="M20.25,7.571L19.59,7.777L19,8.101L18.47,8.531L18.04,9.051L17.72,9.649L17.52,10.31L17.44,11.02L17.52,11.73L17.72,12.39L18.04,12.98L18.47,13.5L19,13.93L19.59,14.26L20.25,14.46L20.96,14.53L21.54,14.49L22.09,14.35L22.61,14.13L23.07,13.83L23.07,8.203L22.61,7.907L22.09,7.686L21.54,7.548L20.96,7.5zz" fill="#F3B8B8"/>
      <path d="M20.91,7.003L20.2,7.074L20.15,7.079L20.1,7.094L19.44,7.299L19.4,7.314L19.35,7.337L18.76,7.662L18.71,7.685L18.68,7.715L18.16,8.145L18.12,8.175L18.09,8.212L17.66,8.733L17.63,8.77L17.61,8.813L17.28,9.41L17.26,9.453L17.24,9.5L17.04,10.16L17.02,10.21L17.02,10.26L16.95,10.97L16.94,11.02L16.95,11.07L17.02,11.78L17.02,11.83L17.04,11.87L17.24,12.53L17.26,12.58L17.28,12.63L17.61,13.22L17.63,13.26L17.66,13.3L18.09,13.82L18.12,13.86L18.16,13.89L18.68,14.32L18.71,14.35L18.76,14.37L19.35,14.7L19.4,14.72L19.44,14.74L20.1,14.94L20.15,14.96L20.2,14.96L20.91,15.03L20.96,15.04L21,15.03L21.58,14.99L21.62,14.98L21.66,14.97L22.21,14.83L22.25,14.82L22.29,14.81L22.8,14.59L22.84,14.57L22.87,14.55L23.34,14.25L23.55,13.99L23.54,13.65L23.32,13.4L22.99,13.34L22.8,13.41L22.37,13.68L21.93,13.87L21.46,13.99L20.97,14.03L20.35,13.97L19.79,13.8L19.28,13.52L18.83,13.15L18.46,12.7L18.18,12.19L18.01,11.63L17.95,11.02L18.01,10.41L18.18,9.844L18.46,9.332L18.83,8.886L19.28,8.517L19.79,8.239L20.35,8.064L20.97,8.002L21.46,8.043L21.93,8.161L22.37,8.35L22.8,8.625L23.13,8.699L23.43,8.549L23.57,8.241L23.48,7.917L23.34,7.781L22.87,7.485L22.84,7.463L22.8,7.447L22.29,7.227L22.25,7.211L22.21,7.201L21.66,7.063L21.62,7.053L21.58,7.049L21,7.002L20.96,6.998zz" fill="#E42D2C"/>
      <path d="M24.4,7.548L23.85,7.686L23.34,7.907L22.87,8.203L22.29,8.751L21.85,9.419L21.56,10.18L21.49,10.59L21.47,11.02L21.49,11.44L21.56,11.85L21.85,12.61L22.29,13.28L22.87,13.83L23.34,14.13L23.85,14.35L24.4,14.49L24.98,14.53L25.69,14.46L26.35,14.26L26.95,13.93L27.47,13.5L27.9,12.98L28.22,12.39L28.43,11.73L28.5,11.02L28.43,10.31L28.22,9.648L27.9,9.051L27.47,8.53L26.95,8.101L26.35,7.776L25.69,7.571L24.98,7.5zz" fill="#F7DA8E"/>
      <path d="M24.94,7.002L24.36,7.049L24.32,7.053L24.28,7.063L23.73,7.201L23.69,7.211L23.65,7.227L23.14,7.447L23.1,7.463L23.07,7.485L22.6,7.781L22.56,7.807L22.53,7.839L21.95,8.388L21.91,8.427L21.88,8.474L21.43,9.142L21.4,9.19L21.38,9.245L21.1,10.01L21.08,10.05L21.07,10.09L21,10.5L20.99,10.53L20.99,10.56L20.97,10.99L20.96,11.02L20.97,11.05L20.99,11.47L20.99,11.5L21,11.53L21.07,11.94L21.08,11.98L21.1,12.02L21.38,12.79L21.4,12.84L21.43,12.89L21.88,13.56L21.91,13.61L21.95,13.65L22.53,14.19L22.56,14.23L22.6,14.25L23.07,14.55L23.1,14.57L23.14,14.59L23.65,14.81L23.69,14.82L23.73,14.83L24.28,14.97L24.32,14.98L24.36,14.98L24.94,15.03L24.99,15.04L25.03,15.03L25.74,14.96L25.79,14.95L25.84,14.94L26.5,14.74L26.55,14.72L26.59,14.7L27.19,14.37L27.23,14.35L27.27,14.32L27.79,13.89L27.82,13.86L27.86,13.82L28.28,13.3L28.32,13.26L28.34,13.22L28.66,12.62L28.69,12.58L28.7,12.53L28.91,11.87L28.92,11.83L28.93,11.78L29,11.07L29,11.02L29,10.97L28.93,10.26L28.92,10.21L28.91,10.16L28.7,9.499L28.69,9.452L28.66,9.409L28.34,8.812L28.32,8.77L28.28,8.732L27.86,8.212L27.82,8.175L27.79,8.144L27.27,7.715L27.23,7.684L27.19,7.661L26.59,7.337L26.55,7.313L26.5,7.299L25.84,7.094L25.79,7.079L25.74,7.074L25.03,7.003L24.99,6.998zM25.59,8.064L26.16,8.239L26.67,8.517L27.11,8.885L27.48,9.331L27.76,9.843L27.94,10.41L28,11.02L27.94,11.62L27.76,12.19L27.48,12.7L27.11,13.15L26.67,13.52L26.16,13.79L25.59,13.97L24.98,14.03L24.48,13.99L24.01,13.87L23.57,13.68L23.18,13.43L22.68,12.96L22.3,12.39L22.05,11.72L21.99,11.38L21.97,11.02L21.99,10.65L22.05,10.31L22.3,9.647L22.68,9.076L23.18,8.599L23.57,8.35L24.01,8.161L24.48,8.043L24.98,8.002zz" fill="#E57428"/>
      <path d="M6.5,11.5L9.5,11.5L9.5,8.5L6.5,8.5zz" fill="#F7DA8E"/>
      <path d="M6,8.5L6,11.5L6,12L6.5,12L9.5,12L10,12L10,11.5L10,8.5L10,8L9.5,8L6.5,8L6,8zM9,9L9,11L7,11L7,9zz" fill="#E57428"/>
      <path d="M28,17.5L24,17.5zz" fill="#FFFFFF"/>
      <path d="M6,17L6.003,17L6,17zM20.83,18L22,18L22,17L18.76,17zM24,18L28,18L28,17L24,17zz" fill="#383838"/>
    </g>
    <g id="overlay">
      <polygon points="15.308,20.357 15.016,20.437 17.788,18.75 12.098,16 1.125,21.892 3.761,23.53 3.744,23.535 1.125,24.871 3.788,26.526 1.125,27.865 6.815,31.4 17.788,24.722 15.308,23.402 14.824,23.533 17.788,21.729" fill="#FFFFFF" stroke-linejoin="miter"/>
      <path d="M6.815,25.428l-5.69,-3.535L12.098,16l5.69,2.75L6.815,25.428zM3.744,23.535l-2.619,1.337l5.69,3.535l10.973,-6.678l-2.48,-1.372M3.804,26.518l-2.679,1.346L6.815,31.4l10.973,-6.678l-2.48,-1.32" fill="none" stroke="#17AB4F" stroke-width="1" stroke-miterlimit="10"/>
      <path d="M13,27.639l0.006,-5.953c-0.002,-0.248,-0.069,-0.656,-0.277,-0.802l-4.656,-2.724l-3.35,1.798l4.951,3.123c0.204,0.148,0.324,0.379,0.324,0.625v5.763L13,27.639z" fill="#FFFFFF" stroke="#787979" stroke-width="1" stroke-miterlimit="10"/>
    </g>
  </g>
</svg>
