<?xml version="1.0" encoding="UTF-8"?>
<!DOCTYPE svg PUBLIC "-//W3C//DTD SVG 1.1//EN" "http://www.w3.org/Graphics/SVG/1.1/DTD/svg11.dtd">
<svg version="1.1" id="Layer_1" xmlns="http://www.w3.org/2000/svg" xmlns:xlink="http://www.w3.org/1999/xlink" x="0px" y="0px" width="32px" height="32px" viewBox="0 0 32 32" enable-background="new 0 0 32 32" xml:space="preserve">
  <g id="main">
    <g id="icon">
      <path d="M0.5,28.5L16.46,28.5L16.14,27.82L15.79,26.76L15.57,25.65L15.5,24.5L15.55,23.58L15.68,22.69L15.91,21.83L16.21,21L16.59,20.21L17.04,19.47L17.56,18.78L18.14,18.14L18.78,17.56L19.47,17.04L20.21,16.59L21,16.21L21.83,15.91L22.69,15.68L23.58,15.55L24.5,15.5L25.65,15.57L26.76,15.79L27.82,16.14L28.82,16.61L29.5,17.04L29.5,5.5L0.5,5.5zz" fill="#FFFFFF"/>
      <path d="M0,5.5L0,28.5L0,29L0.5,29L16.72,29L16.61,28.82L16.22,28L1,28L1,6L29,6L29,16.72L29.74,17.19L30,17.4L30,5.5L30,5L29.5,5L0.5,5L0,5zz" fill="#383838"/>
      <path d="M0.5813,14.31L0.8145,15.06L1.183,15.74L1.672,16.33L2.264,16.82L2.943,17.19L3.694,17.42L4.5,17.5L18.86,17.5L19.47,17.04L20.21,16.59L21,16.21L21.83,15.91L22.69,15.68L23.58,15.55L24.5,15.5L25.65,15.57L26.76,15.79L27.82,16.14L28.29,16.36L28.33,16.33L28.82,15.74L29.19,15.06L29.42,14.31L29.5,13.5L0.5,13.5zz" fill="#FFFFFF"/>
      <path d="M0.002539,13.55L0.08379,14.36L0.08887,14.41L0.1037,14.45L0.3369,15.21L0.3514,15.25L0.375,15.3L0.7438,15.98L0.7668,16.02L0.7975,16.05L1.286,16.65L1.316,16.68L1.353,16.71L1.946,17.2L1.983,17.23L2.025,17.26L2.704,17.63L2.748,17.65L2.795,17.66L3.546,17.9L3.594,17.91L3.644,17.92L4.45,18L4.475,18L4.5,18L18.29,18L18.78,17.56L19.47,17.04L19.54,17L4.525,17L3.794,16.93L3.138,16.72L2.544,16.4L2.027,15.97L1.6,15.46L1.277,14.86L1.074,14.21L0.9975,13.45zM28.93,14.21L28.72,14.86L28.4,15.46L27.97,15.97L27.79,16.12L27.82,16.14L28.77,16.58L29.2,16.05L29.23,16.02L29.26,15.98L29.63,15.3L29.65,15.25L29.66,15.21L29.9,14.45L29.91,14.41L29.92,14.36L30,13.55L29,13.45zz" fill="#383838"/>
      <path d="M11.47,1.003L11.06,1.044L11.01,1.049L10.96,1.063L10.58,1.181L10.54,1.196L10.49,1.219L10.15,1.405L10.11,1.428L10.07,1.459L9.772,1.705L9.736,1.736L9.705,1.772L9.459,2.071L9.428,2.108L9.405,2.151L9.219,2.493L9.196,2.537L9.181,2.584L9.063,2.962L9.049,3.01L9.044,3.06L9.003,3.467L9,3.492L9,3.517L9,5.5L10,5.5L10,3.542L10.03,3.211L10.12,2.927L10.26,2.67L10.45,2.446L10.67,2.261L10.93,2.121L11.21,2.033L11.54,2L18.46,2L18.79,2.033L19.07,2.121L19.33,2.261L19.55,2.446L19.74,2.67L19.88,2.927L19.97,3.211L20,3.542L20,5.5L21,5.5L21,3.517L21,3.492L21,3.467L20.96,3.06L20.95,3.01L20.94,2.962L20.82,2.584L20.8,2.537L20.78,2.493L20.6,2.151L20.57,2.108L20.54,2.071L20.3,1.773L20.26,1.736L20.23,1.705L19.93,1.459L19.89,1.428L19.85,1.405L19.51,1.219L19.46,1.196L19.42,1.181L19.04,1.063L18.99,1.049L18.94,1.044L18.53,1.003L18.51,1L18.48,1L11.52,1L11.49,1zz" fill="#383838"/>
      <path d="M12.5,20.5L16.45,20.5L16.59,20.21L17.04,19.47L17.5,18.86L17.5,14.5L12.5,14.5zz" fill="#F7DA8E"/>
      <path d="M12,14.5L12,20.5L12,21L12.5,21L16.21,21L16.59,20.21L16.72,20L13,20L13,15L17,15L17,19.54L17.04,19.47L17.56,18.78L18,18.29L18,14.5L18,14L17.5,14L12.5,14L12,14zz" fill="#E57428"/>
    </g>
    <g id="overlay">
      <circle cx="24.5" cy="24.5" r="7" fill="#FFFFFF" stroke="#ED8730" stroke-width="1" stroke-miterlimit="10"/>
      <path d="M21.933,27.453c0.149,0.149,0.304,0.284,0.465,0.403c0.16,0.12,0.334,0.219,0.521,0.297c0.187,0.079,0.392,0.138,0.615,0.179c0.223,0.041,0.475,0.057,0.754,0.048l0.132,-0.004c0.387,-0.023,0.731,-0.099,1.032,-0.229c0.301,-0.13,0.554,-0.3,0.758,-0.509c0.204,-0.209,0.356,-0.449,0.457,-0.72c0.1,-0.27,0.145,-0.559,0.133,-0.866c-0.012,-0.322,-0.089,-0.586,-0.23,-0.792c-0.142,-0.206,-0.324,-0.376,-0.546,-0.51c-0.223,-0.134,-0.474,-0.243,-0.753,-0.326c-0.279,-0.083,-0.562,-0.162,-0.848,-0.238l-0.127,-0.035c-0.254,-0.069,-0.5,-0.144,-0.737,-0.224c-0.237,-0.081,-0.448,-0.184,-0.632,-0.31c-0.185,-0.126,-0.334,-0.283,-0.449,-0.469c-0.115,-0.187,-0.177,-0.417,-0.187,-0.692c-0.008,-0.227,0.029,-0.446,0.111,-0.66c0.082,-0.213,0.209,-0.403,0.381,-0.569c0.172,-0.166,0.385,-0.302,0.639,-0.407c0.254,-0.105,0.549,-0.166,0.884,-0.184l0.126,-0.004c0.32,-0.002,0.588,0.031,0.804,0.099c0.216,0.068,0.395,0.144,0.536,0.228c0.141,0.084,0.249,0.16,0.323,0.229c0.075,0.069,0.398,0.367,0.398,0.367M24.505,19.46v10.173" fill="#FFFFFF" stroke="#ED8730" stroke-width="1" stroke-miterlimit="10"/>
    </g>
  </g>
</svg>
