<?xml version="1.0" encoding="UTF-8"?>
<!DOCTYPE svg PUBLIC "-//W3C//DTD SVG 1.1//EN" "http://www.w3.org/Graphics/SVG/1.1/DTD/svg11.dtd">
<svg version="1.1" id="Layer_1" xmlns="http://www.w3.org/2000/svg" xmlns:xlink="http://www.w3.org/1999/xlink" x="0px" y="0px" width="32px" height="32px" viewBox="0 0 32 32" enable-background="new 0 0 32 32" xml:space="preserve">
  <g id="main">
    <g id="icon">
      <path d="M0.5,8.613L0.5,9.5L4.5,9.5L4.5,24.5L15.5,24.5L15.55,23.58L15.68,22.69L15.91,21.83L16.21,21L16.59,20.21L17.04,19.47L17.56,18.78L18.14,18.14L18.78,17.56L19.47,17.04L20.21,16.59L21,16.21L21.83,15.91L22.69,15.68L23.58,15.55L24.5,15.5L25.6,15.57L25.6,9.5L29.5,9.5L29.5,8.613L15,0.7zM2.5,27.5L0.5,27.5L0.5,29.5L17.04,29.5L16.61,28.82L16.14,27.82L15.79,26.76L15.57,25.65L15.56,25.5L2.5,25.5zz" fill="#FFFFFF"/>
      <path d="M0.5,8.613L0.5,9.5L4.5,9.5L4.5,25.4L15.56,25.4L15.5,24.5L15.55,23.58L15.68,22.69L15.91,21.83L16.21,21L16.59,20.21L17.04,19.47L17.56,18.78L18.14,18.14L18.78,17.56L19.47,17.04L20.21,16.59L21,16.21L21.83,15.91L22.69,15.68L23.58,15.55L24.5,15.5L25.6,15.57L25.6,9.5L29.5,9.5L29.5,8.613L15,0.7zM2.5,27.5L0.5,27.5L0.5,29.5L17.04,29.5L16.61,28.82L16.14,27.82L15.79,26.76L15.57,25.65L15.56,25.5L2.5,25.5zz" fill="#C8C6C4" opacity="0.4"/>
      <path d="M11.5,25.5L15.56,25.5L15.5,24.5L15.55,23.58L15.68,22.69L15.91,21.83L16.21,21L16.59,20.21L17.04,19.47L17.56,18.78L18.14,18.14L18.5,17.81L18.5,14.5L11.5,14.5zz" fill="#F7DA8E"/>
      <path d="M11,14.5L11,25.5L11,26L11.5,26L15.64,26L15.57,25.65L15.53,25L12,25L12,15L18,15L18,18.29L18.14,18.14L18.78,17.56L19,17.39L19,14.5L19,14L18.5,14L11.5,14L11,14zz" fill="#E57428"/>
      <path d="M2,25.5L2,27L0.5,27L0,27L0,27.5L0,29.5L0,30L0.5,30L17.4,30L17.19,29.74L16.72,29L1,29L1,28L2,28L2.5,28L16.22,28L16.14,27.82L15.87,27L3,27L3,26L15.64,26L15.57,25.65L15.53,25L2.5,25L2,25zz" fill="#383838"/>
      <path d="M14.76,0.2611L0.2605,8.174L0,8.316L0,8.613L0,9.5L0,10L0.5,10L29.5,10L30,10L30,9.5L30,8.613L30,8.316L29.74,8.174L15.24,0.2611L15,0.1305zM29,8.91L29,9L1,9L1,8.91L15,1.27zz" fill="#383838"/>
      <path d="M14.7,4.53L14.42,4.618L14.16,4.756L13.94,4.939L13.76,5.161L13.62,5.416L13.53,5.698L13.5,6L13.53,6.302L13.62,6.584L13.76,6.839L13.94,7.061L14.16,7.244L14.42,7.382L14.7,7.47L15,7.5L15.3,7.47L15.58,7.382L15.84,7.244L16.06,7.061L16.24,6.839L16.38,6.584L16.47,6.302L16.5,6L16.47,5.698L16.38,5.416L16.24,5.161L16.06,4.939L15.84,4.756L15.58,4.618L15.3,4.53L15,4.5zz" fill="#C8C6C4"/>
      <path d="M14.95,4.003L14.65,4.033L14.6,4.038L14.55,4.053L14.27,4.14L14.22,4.155L14.18,4.179L13.92,4.317L13.88,4.34L13.84,4.371L13.62,4.554L13.58,4.584L13.55,4.621L13.37,4.843L13.34,4.88L13.32,4.923L13.18,5.178L13.15,5.221L13.14,5.268L13.05,5.549L13.04,5.597L13.03,5.647L13,5.95L13,6L13,6.05L13.03,6.353L13.04,6.403L13.05,6.451L13.14,6.732L13.15,6.779L13.18,6.822L13.32,7.077L13.34,7.12L13.37,7.157L13.55,7.379L13.58,7.416L13.62,7.446L13.84,7.629L13.88,7.66L13.92,7.683L14.18,7.821L14.22,7.845L14.27,7.86L14.55,7.947L14.6,7.962L14.65,7.967L14.95,7.997L15,8.003L15.05,7.997L15.35,7.967L15.4,7.962L15.45,7.947L15.73,7.86L15.78,7.845L15.82,7.821L16.08,7.683L16.12,7.66L16.16,7.629L16.38,7.446L16.42,7.416L16.45,7.379L16.63,7.157L16.66,7.12L16.68,7.077L16.82,6.822L16.85,6.779L16.86,6.732L16.95,6.451L16.96,6.403L16.97,6.353L17,6.05L17,6L17,5.95L16.97,5.647L16.96,5.597L16.95,5.549L16.86,5.268L16.85,5.221L16.82,5.178L16.68,4.923L16.66,4.88L16.63,4.843L16.45,4.621L16.42,4.584L16.38,4.554L16.16,4.371L16.12,4.34L16.08,4.317L15.82,4.179L15.78,4.155L15.73,4.14L15.45,4.053L15.4,4.038L15.35,4.033L15.05,4.003L15,3.997zM15.2,5.023L15.39,5.081L15.56,5.173L15.71,5.295L15.83,5.442L15.92,5.611L15.98,5.798L16,6L15.98,6.202L15.92,6.389L15.83,6.558L15.71,6.705L15.56,6.827L15.39,6.919L15.2,6.977L15,6.997L14.8,6.977L14.61,6.919L14.44,6.827L14.29,6.705L14.17,6.558L14.08,6.389L14.02,6.202L14,6L14.02,5.798L14.08,5.611L14.17,5.442L14.29,5.295L14.44,5.173L14.61,5.081L14.8,5.023L15,5.003zz" fill="#383838"/>
      <path d="M3.5,10.95L3.543,11.16L3.661,11.34L3.836,11.46L4.05,11.5L4.5,11.5L4.5,23.5L4.05,23.5L3.836,23.54L3.661,23.66L3.543,23.84L3.5,24.05L3.5,25.5L8.5,25.5L8.5,24.05L8.457,23.84L8.339,23.66L8.164,23.54L7.95,23.5L7.5,23.5L7.5,11.5L7.95,11.5L8.164,11.46L8.339,11.34L8.457,11.16L8.5,10.95L8.5,9.5L3.5,9.5zz" fill="#C8C6C4"/>
      <path d="M3,9.5L3,10.95L3,11L3.01,11.05L3.053,11.26L3.073,11.36L3.129,11.44L3.246,11.62L3.301,11.7L3.382,11.75L3.556,11.87L3.639,11.93L3.737,11.95L3.951,11.99L4,12L4,23L3.951,23.01L3.737,23.05L3.639,23.07L3.556,23.13L3.382,23.25L3.301,23.3L3.246,23.38L3.129,23.56L3.073,23.64L3.053,23.74L3.01,23.95L3,24L3,24.05L3,25.5L3,26L3.5,26L8.5,26L9,26L9,25.5L9,24.05L9,24L8.99,23.95L8.947,23.74L8.927,23.64L8.871,23.56L8.754,23.38L8.699,23.3L8.618,23.25L8.444,23.13L8.361,23.07L8.263,23.05L8.049,23.01L8,23L8,12L8.049,11.99L8.263,11.95L8.361,11.93L8.444,11.87L8.618,11.75L8.699,11.7L8.754,11.62L8.871,11.44L8.927,11.36L8.947,11.26L8.99,11.05L9,11L9,10.95L9,9.5L9,9L8.5,9L3.5,9L3,9zM8,10L8,10.9L7.986,10.97L7.979,10.98L7.968,10.99L7.9,11L7.5,11L4.5,11L4.1,11L4.032,10.99L4.021,10.98L4.014,10.97L4,10.9L4,10zM7,12L7,23L5,23L5,12zM4.5,24L7.5,24L7.9,24L7.968,24.01L7.979,24.02L7.986,24.03L8,24.1L8,25L4,25L4,24.1L4.014,24.03L4.021,24.02L4.032,24.01L4.1,24zz" fill="#383838"/>
      <path d="M21.5,10.95L21.54,11.16L21.66,11.34L21.84,11.46L22.05,11.5L22.5,11.5L22.5,15.73L22.69,15.68L23.58,15.55L24.5,15.5L25.5,15.56L25.5,11.5L25.95,11.5L26.16,11.46L26.34,11.34L26.46,11.16L26.5,10.95L26.5,9.5L21.5,9.5zz" fill="#C8C6C4"/>
      <path d="M21,9.5L21,10.95L21,11L21.01,11.05L21.05,11.26L21.07,11.36L21.13,11.44L21.25,11.62L21.3,11.7L21.38,11.75L21.56,11.87L21.64,11.93L21.74,11.95L21.95,11.99L22,12L22,15.86L22.69,15.68L23,15.64L23,12L25,12L25,15.53L25.65,15.57L26,15.64L26,12L26.05,11.99L26.26,11.95L26.36,11.93L26.44,11.87L26.62,11.75L26.7,11.7L26.75,11.62L26.87,11.44L26.93,11.36L26.95,11.26L26.99,11.05L27,11L27,10.95L27,9.5L27,9L26.5,9L21.5,9L21,9zM26,10L26,10.9L25.99,10.97L25.98,10.98L25.97,10.99L25.9,11L25.5,11L22.5,11L22.1,11L22.03,10.99L22.02,10.98L22.01,10.97L22,10.9L22,10zz" fill="#383838"/>
    </g>
    <g id="overlay">
      <circle cx="24.5" cy="24.5" r="7" fill="#FFFFFF" stroke="#ED8730" stroke-width="1" stroke-miterlimit="10"/>
      <path d="M21.933,27.453c0.149,0.149,0.304,0.284,0.465,0.403c0.16,0.12,0.334,0.219,0.521,0.297c0.187,0.079,0.392,0.138,0.615,0.179c0.223,0.041,0.475,0.057,0.754,0.048l0.132,-0.004c0.387,-0.023,0.731,-0.099,1.032,-0.229c0.301,-0.13,0.554,-0.3,0.758,-0.509c0.204,-0.209,0.356,-0.449,0.457,-0.72c0.1,-0.27,0.145,-0.559,0.133,-0.866c-0.012,-0.322,-0.089,-0.586,-0.23,-0.792c-0.142,-0.206,-0.324,-0.376,-0.546,-0.51c-0.223,-0.134,-0.474,-0.243,-0.753,-0.326c-0.279,-0.083,-0.562,-0.162,-0.848,-0.238l-0.127,-0.035c-0.254,-0.069,-0.5,-0.144,-0.737,-0.224c-0.237,-0.081,-0.448,-0.184,-0.632,-0.31c-0.185,-0.126,-0.334,-0.283,-0.449,-0.469c-0.115,-0.187,-0.177,-0.417,-0.187,-0.692c-0.008,-0.227,0.029,-0.446,0.111,-0.66c0.082,-0.213,0.209,-0.403,0.381,-0.569c0.172,-0.166,0.385,-0.302,0.639,-0.407c0.254,-0.105,0.549,-0.166,0.884,-0.184l0.126,-0.004c0.32,-0.002,0.588,0.031,0.804,0.099c0.216,0.068,0.395,0.144,0.536,0.228c0.141,0.084,0.249,0.16,0.323,0.229c0.075,0.069,0.398,0.367,0.398,0.367M24.505,19.46v10.173" fill="#FFFFFF" stroke="#ED8730" stroke-width="1" stroke-miterlimit="10"/>
    </g>
  </g>
</svg>
