<?xml version="1.0" encoding="UTF-8"?>
<!DOCTYPE svg PUBLIC "-//W3C//DTD SVG 1.1//EN" "http://www.w3.org/Graphics/SVG/1.1/DTD/svg11.dtd">
<svg version="1.1" id="Layer_1" xmlns="http://www.w3.org/2000/svg" xmlns:xlink="http://www.w3.org/1999/xlink" x="0px" y="0px" width="32px" height="32px" viewBox="0 0 32 32" enable-background="new 0 0 32 32" xml:space="preserve">
  <g id="main">
    <g id="icon">
      <path d="M0.5,28.5L14.5,28.5L14.5,26.31L14.5,26.25L14.56,25.69L14.72,25.15L14.98,24.64L15.33,24.15L15.76,23.7L16.26,23.28L16.85,22.91L17.5,22.59L17.5,21.24L17.5,21.16L17.55,20.65L17.67,20.17L17.86,19.71L18.12,19.27L18.44,18.86L18.83,18.48L19.27,18.12L19.78,17.8L20.33,17.51L20.94,17.25L22.3,16.84L23.83,16.59L25.52,16.5L26.54,16.53L27.51,16.62L28.43,16.78L29.28,16.98L29.5,17.06L29.5,6.5L0.5,6.5zz" fill="#FFFFFF"/>
      <path d="M0,6.5L0,28.5L0,29L0.5,29L14.5,29L14.5,28L1,28L1,7L29,7L29,16.92L29.28,16.98L30,17.22L30,6.5L30,6L29.5,6L0.5,6L0,6zz" fill="#383838"/>
      <path d="M0.5,6.5L29.5,6.5L29.5,1.5L0.5,1.5zz" fill="#92CBEE"/>
      <path d="M0,1.5L0,6.5L0,7L0.5,7L29.5,7L30,7L30,6.5L30,1.5L30,1L29.5,1L0.5,1L0,1zM29,2L29,6L1,6L1,2zz" fill="#0964B0"/>
      <path d="M5,9.5L5,13L5,13.5L5,14L5,17L5,17.5L5,18L5,21L5,21.5L5,22L5,25.5L5,26L5.5,26L12,26L12.5,26L13,26L14.53,26L14.56,25.69L14.72,25.15L14.8,25L13,25L13,22L17.5,22L17.5,21.24L17.5,21.16L17.52,21L13,21L13,18L18,18L18,19.47L18.12,19.27L18.44,18.86L18.83,18.48L19,18.34L19,18L19.46,18L19.78,17.8L20.33,17.51L20.94,17.25L21.77,17L19,17L19,14L24,14L24,16.58L25,16.53L25,14L25,13.5L25,13L25,9.5L25,9L24.5,9L19,9L18.5,9L18,9L13,9L12.5,9L12,9L5.5,9L5,9zM12,10L12,13L6,13L6,10zM18,10L18,13L13,13L13,10zM24,10L24,13L19,13L19,10zM12,14L12,17L6,17L6,14zM18,14L18,17L13,17L13,14zM12,18L12,21L6,21L6,18zM12,22L12,25L6,25L6,22zz" fill="#787979" opacity="0.7"/>
      <path d="M6,13L12,13L12,10L6,10zM13,13L18,13L18,10L13,10zM19,13L24,13L24,10L19,10zM6,17L12,17L12,14L6,14zM6,21L12,21L12,18L6,18zM6,25L12,25L12,22L6,22zz" fill="#78797A" opacity="0.15"/>
    </g>
    <g id="overlay">
      <path d="M28.5,26.308c0,0,0,2.45,0,2.743c0,1.133,-2.683,2.449,-5.998,2.449c-3.315,0,-6.002,-1.316,-6.002,-2.436c0,-0.251,0,-2.757,0,-2.757" fill="#F7DA8E" stroke="#E57428" stroke-width="1" stroke-linecap="round" stroke-miterlimit="10"/>
      <path d="M28.5,26.294c0,1.484,-2.653,2.478,-5.978,2.478c-3.325,0,-6.021,-0.993,-6.021,-2.478c0,-0.877,1.148,-1.852,2.998,-2.244" fill="#F7DA8E" stroke="#E57428" stroke-width="1" stroke-linecap="round" stroke-miterlimit="10"/>
      <path d="M31.5,21.238c0,0,0,2.483,0,2.78c0,1.148,-2.683,2.482,-5.998,2.482c-3.315,0,-6.002,-1.334,-6.002,-2.468c0,-0.254,0,-2.793,0,-2.793" fill="#F7DA8E" stroke="#E57428" stroke-width="1" stroke-linecap="round" stroke-miterlimit="10"/>
      <path d="M25.522,18.5c3.325,0,5.978,1.219,5.978,2.724c0,1.504,-2.653,2.511,-5.978,2.511c-3.325,0,-6.021,-1.007,-6.021,-2.511C19.502,19.719,22.197,18.5,25.522,18.5z" fill="#F7DA8E" stroke="#E57428" stroke-width="1" stroke-linecap="round" stroke-miterlimit="10"/>
    </g>
  </g>
</svg>
