<?xml version="1.0" encoding="UTF-8"?>
<!DOCTYPE svg PUBLIC "-//W3C//DTD SVG 1.1//EN" "http://www.w3.org/Graphics/SVG/1.1/DTD/svg11.dtd">
<svg version="1.1" id="Layer_1" xmlns="http://www.w3.org/2000/svg" xmlns:xlink="http://www.w3.org/1999/xlink" x="0px" y="0px" width="32px" height="32px" viewBox="0 0 32 32" enable-background="new 0 0 32 32" xml:space="preserve">
  <g id="main">
    <g id="icon">
      <path d="M27.5,23.5L31.5,23.5L31.5,16.5L27.5,16.5zz" fill="#F7DA8E"/>
      <path d="M27,16.5L27,23.5L27,24L27.5,24L31.5,24L32,24L32,23.5L32,16.5L32,16L31.5,16L27.5,16L27,16zM31,17L31,23L28,23L28,17zz" fill="#ED8730"/>
      <path d="M27.5,16.5L31.5,16.5L31.5,9.5L27.5,9.5zz" fill="#92CBEE"/>
      <path d="M27,9.5L27,16.5L27,17L27.5,17L31.5,17L32,17L32,16.5L32,9.5L32,9L31.5,9L27.5,9L27,9zM31,10L31,16L28,16L28,10zz" fill="#0964B0"/>
      <path d="M27.5,9.5L31.5,9.5L31.5,2.5L27.5,2.5zz" fill="#ACD8B1"/>
      <path d="M27,2.5L27,9.5L27,10L27.5,10L31.5,10L32,10L32,9.5L32,2.5L32,2L31.5,2L27.5,2L27,2zM31,3L31,9L28,9L28,3zz" fill="#0BA04A"/>
      <path d="M3.5,16.46L4.178,16.14L5.236,15.79L6.346,15.57L7.5,15.5L8.419,15.55L9.312,15.68L10.17,15.91L11,16.21L11.79,16.59L12.53,17.04L13.22,17.56L13.86,18.14L14.44,18.78L14.96,19.47L15.41,20.21L15.79,21L16.09,21.83L16.32,22.69L16.45,23.58L16.5,24.5L16.43,25.65L16.21,26.76L15.86,27.82L15.39,28.82L14.96,29.5L27.5,29.5L27.5,0.5L3.5,0.5zz" fill="#FFFFFF"/>
      <path d="M3,0.5L3,16.72L3.183,16.61L4,16.22L4,1L27,1L27,29L15.28,29L14.81,29.74L14.6,30L27.5,30L28,30L28,29.5L28,0.5L28,0L27.5,0L3.5,0L3,0zz" fill="#383838"/>
      <path d="M7,5L18,5L18,4L7,4zM7,8L18,8L18,7L7,7zM7,11L18,11L18,10L7,10zM7,14L18,14L18,13L7,13zM11,16.21L11.79,16.59L12.46,17L18,17L18,16L10.43,16zM14.96,19.47L15.28,20L18,20L18,19L14.61,19zM16.32,22.69L16.36,23L18,23L18,22L16.14,22zM16.43,25.65L16.36,26L18,26L18,25L16.47,25zz" fill="#787979"/>
      <path d="M24,4.5L20,4.5zM24,7.5L20,7.5zM24,10.5L20,10.5zM24,13.5L20,13.5zM24,16.5L20,16.5zM24,19.5L20,19.5zM24,22.5L20,22.5zM24,25.5L20,25.5zz" fill="#FFFFFF"/>
      <path d="M20,5L24,5L24,4L20,4zM20,8L24,8L24,7L20,7zM20,11L24,11L24,10L20,10zM20,14L24,14L24,13L20,13zM20,17L24,17L24,16L20,16zM20,20L24,20L24,19L20,19zM20,23L24,23L24,22L20,22zM20,26L24,26L24,25L20,25zz" fill="#228BCB"/>
    </g>
    <g id="overlay">
      <path d="M7.5,17.5c-3.866,0,-7,3.134,-7,7c0,3.866,3.134,7,7,7s7,-3.134,7,-7C14.5,20.634,11.366,17.5,7.5,17.5zM8.1,29H6.9v-6h1.2V29zM8.1,21.5H6.9v-1.5h1.2V21.5z" fill="#92CBEE"/>
      <path d="M7.5,17.5c-3.866,0,-7,3.134,-7,7c0,3.866,3.134,7,7,7s7,-3.134,7,-7C14.5,20.634,11.366,17.5,7.5,17.5zM8.1,29H6.9v-6h1.2V29zM8.1,21.5H6.9v-1.5h1.2V21.5z" fill="#0964B0" opacity="0.2"/>
      <path d="M7.5,32c-4.135,0,-7.5,-3.365,-7.5,-7.5s3.365,-7.5,7.5,-7.5s7.5,3.365,7.5,7.5S11.635,32,7.5,32zM7.5,18c-3.584,0,-6.5,2.916,-6.5,6.5s2.916,6.5,6.5,6.5s6.5,-2.916,6.5,-6.5S11.084,18,7.5,18z" fill="#0964B0"/>
      <path d="M8.1,29H6.9v-6h1.2V29zM8.1,21.5H6.9v-1.5h1.2V21.5z" fill="#FFFFFF"/>
    </g>
  </g>
</svg>
