<?xml version="1.0" encoding="UTF-8"?>
<!DOCTYPE svg PUBLIC "-//W3C//DTD SVG 1.1//EN" "http://www.w3.org/Graphics/SVG/1.1/DTD/svg11.dtd">
<svg version="1.1" id="Layer_1" xmlns="http://www.w3.org/2000/svg" xmlns:xlink="http://www.w3.org/1999/xlink" x="0px" y="0px" width="32px" height="32px" viewBox="0 0 32 32" enable-background="new 0 0 32 32" xml:space="preserve">
  <g id="main">
    <g id="icon">
      <path d="M0.5,28.5L16.46,28.5L16.14,27.82L15.79,26.76L15.57,25.65L15.5,24.5L15.55,23.58L15.68,22.69L15.91,21.83L16.21,21L16.59,20.21L17.04,19.47L17.56,18.78L18.14,18.14L18.78,17.56L19.47,17.04L20.21,16.59L21,16.21L21.83,15.91L22.69,15.68L23.58,15.55L24.5,15.5L25.65,15.57L26.76,15.79L27.82,16.14L28.82,16.61L29.5,17.04L29.5,6.5L0.5,6.5zz" fill="#FFFFFF"/>
      <path d="M0,6.5L0,28.5L0,29L0.5,29L16.72,29L16.61,28.82L16.22,28L1,28L1,7L29,7L29,16.72L29.74,17.19L30,17.4L30,6.5L30,6L29.5,6L0.5,6L0,6zz" fill="#383838"/>
      <path d="M0.5,6.5L29.5,6.5L29.5,1.5L0.5,1.5zz" fill="#92CBEE"/>
      <path d="M0,1.5L0,6.5L0,7L0.5,7L29.5,7L30,7L30,6.5L30,1.5L30,1L29.5,1L0.5,1L0,1zM29,2L29,6L1,6L1,2zz" fill="#0964B0"/>
      <path d="M5,9.5L5,13L5,13.5L5,14L5,17L5,17.5L5,18L5,21L5,21.5L5,22L5,25.5L5,26L5.5,26L12,26L12.5,26L13,26L15.64,26L15.57,25.65L15.53,25L13,25L13,22L15.86,22L15.91,21.83L16.21,21L13,21L13,18L18,18L18,18.29L18.14,18.14L18.78,17.56L19.47,17.04L19.54,17L19,17L19,14L24,14L24,15.53L24.5,15.5L25,15.53L25,14L25,13.5L25,13L25,9.5L25,9L24.5,9L19,9L18.5,9L18,9L13,9L12.5,9L12,9L5.5,9L5,9zM12,10L12,13L6,13L6,10zM18,10L18,13L13,13L13,10zM24,10L24,13L19,13L19,10zM12,14L12,17L6,17L6,14zM18,14L18,17L13,17L13,14zM12,18L12,21L6,21L6,18zM12,22L12,25L6,25L6,22zz" fill="#787979" opacity="0.7"/>
      <path d="M6,13L12,13L12,10L6,10zM13,13L18,13L18,10L13,10zM19,13L24,13L24,10L19,10zM6,17L12,17L12,14L6,14zM6,21L12,21L12,18L6,18zM6,25L12,25L12,22L6,22zz" fill="#78797A" opacity="0.15"/>
    </g>
    <g id="overlay">
      <path d="M24.5,31.5c3.866,0,7,-3.134,7,-7s-3.134,-7,-7,-7c-3.866,0,-7,3.134,-7,7S20.634,31.5,24.5,31.5zM25.192,28.495l-0.712,-0.703L27.238,25H20v-1h7.238l-2.757,-2.792l0.712,-0.703L29.137,24.5L25.192,28.495z" fill="#92CBEE"/>
      <path d="M24.5,31.5c3.866,0,7,-3.134,7,-7s-3.134,-7,-7,-7c-3.866,0,-7,3.134,-7,7S20.634,31.5,24.5,31.5zM25.192,28.495l-0.712,-0.703L27.238,25H20v-1h7.238l-2.757,-2.792l0.712,-0.703L29.137,24.5L25.192,28.495z" fill="#0964B0" opacity="0.2"/>
      <path d="M24.5,32c-4.135,0,-7.5,-3.365,-7.5,-7.5s3.365,-7.5,7.5,-7.5s7.5,3.365,7.5,7.5S28.635,32,24.5,32zM24.5,31c3.584,0,6.5,-2.916,6.5,-6.5s-2.916,-6.5,-6.5,-6.5s-6.5,2.916,-6.5,6.5S20.916,31,24.5,31z" fill="#0964B0"/>
      <polygon points="29.137,24.5 25.192,20.505 24.481,21.208 27.238,24 20,24 20,25 27.238,25 24.481,27.792 25.192,28.495" fill="#FFFFFF" stroke-linejoin="miter"/>
    </g>
  </g>
</svg>
