<?xml version="1.0" encoding="UTF-8"?>
<!DOCTYPE svg PUBLIC "-//W3C//DTD SVG 1.1//EN" "http://www.w3.org/Graphics/SVG/1.1/DTD/svg11.dtd">
<svg version="1.1" id="Layer_1" xmlns="http://www.w3.org/2000/svg" xmlns:xlink="http://www.w3.org/1999/xlink" x="0px" y="0px" width="32px" height="32px" viewBox="0 0 32 32" enable-background="new 0 0 32 32" xml:space="preserve">
  <g id="main">
    <g id="icon">
      <path d="M0.5,28.5L15.29,28.5L15.31,28.44L15.74,27.64L16.26,26.89L16.84,26.2L17.49,25.59L17.11,24.92L16.83,24.2L16.66,23.45L16.6,22.67L16.63,22.16L16.7,21.65L16.99,20.7L17.45,19.84L18.05,19.08L18.79,18.45L19.63,17.96L20.56,17.64L21.06,17.55L21.57,17.51L21.69,17.28L22.06,16.67L22.51,16.12L23.02,15.65L23.59,15.25L24.2,14.93L24.85,14.69L25.54,14.55L26.25,14.5L26.94,14.55L27.6,14.68L28.23,14.9L28.82,15.19L29.36,15.55L29.5,15.67L29.5,6.5L0.5,6.5zz" fill="#FFFFFF"/>
      <path d="M0,6.5L0,28.5L0,29L0.5,29L15.08,29L15.31,28.44L15.55,28L1,28L1,7L29,7L29,15.31L29.36,15.55L29.85,15.98L30,16.14L30,6.5L30,6L29.5,6L0.5,6L0,6zz" fill="#383838"/>
      <path d="M0.5,6.5L29.5,6.5L29.5,1.5L0.5,1.5zz" fill="#92CBEE"/>
      <path d="M0,1.5L0,6.5L0,7L0.5,7L29.5,7L30,7L30,6.5L30,1.5L30,1L29.5,1L0.5,1L0,1zM29,2L29,6L1,6L1,2zz" fill="#0964B0"/>
      <path d="M5,9.5L5,13L5,13.5L5,14L5,17L5,17.5L5,18L5,21L5,21.5L5,22L5,25.5L5,26L5.5,26L12,26L12.5,26L13,26L17.06,26L17.49,25.59L17.16,25L13,25L13,22L16.65,22L16.7,21.65L16.9,21L13,21L13,18L18,18L18,19.14L18.05,19.08L18.79,18.45L19,18.32L19,18L19.56,18L19.63,17.96L20.56,17.64L21.06,17.55L21.57,17.51L21.69,17.28L21.86,17L19,17L19,14L24,14L24,15.03L24.2,14.93L24.85,14.69L25,14.66L25,14L25,13.5L25,13L25,9.5L25,9L24.5,9L19,9L18.5,9L18,9L13,9L12.5,9L12,9L5.5,9L5,9zM12,10L12,13L6,13L6,10zM18,10L18,13L13,13L13,10zM24,10L24,13L19,13L19,10zM12,14L12,17L6,17L6,14zM18,14L18,17L13,17L13,14zM12,18L12,21L6,21L6,18zM12,22L12,25L6,25L6,22zz" fill="#787979" opacity="0.7"/>
      <path d="M6,13L12,13L12,10L6,10zM13,13L18,13L18,10L13,10zM19,13L24,13L24,10L19,10zM6,17L12,17L12,14L6,14zM6,21L12,21L12,18L6,18zM6,25L12,25L12,22L6,22zz" fill="#78797A" opacity="0.15"/>
    </g>
    <g id="overlay">
      <path d="M24.901,22.672c0,1.752,-1.41,3.253,-3.15,3.253S18.6,24.424,18.6,22.672S20.011,19.5,21.75,19.5S24.901,20.92,24.901,22.672zM27,31.976c0,-3.062,-2.411,-6.03,-5.229,-6.03S16.5,28.914,16.5,31.976" fill="#92CBEE" stroke="#0964B0" stroke-width="1" stroke-miterlimit="10"/>
      <path d="M26.591,22.96c2.678,0.214,4.909,3.071,4.909,6.016h-3.399c-0.331,-0.818,-0.79,-1.589,-1.363,-2.264c-0.342,-0.403,-0.72,-0.766,-1.125,-1.081C26.185,24.858,26.533,23.926,26.591,22.96zM26.601,22.672c0,0.078,-0.002,0.155,-0.006,0.232c1.578,-0.182,2.806,-1.598,2.806,-3.232c0,-1.752,-1.41,-3.172,-3.15,-3.172c-1.183,0,-2.214,0.657,-2.752,1.629C25.311,18.835,26.601,20.604,26.601,22.672z" fill="#C8C6C4"/>
      <path d="M30.324,24.489c-0.624,-0.735,-1.368,-1.293,-2.164,-1.638c1.036,-0.671,1.741,-1.858,1.741,-3.179c0,-2.025,-1.638,-3.672,-3.65,-3.672c-1.402,0,-2.622,0.8,-3.233,1.97c0.328,0.089,0.642,0.213,0.939,0.366c0.459,-0.798,1.315,-1.336,2.294,-1.336c1.461,0,2.65,1.199,2.65,2.672c0,1.372,-1.026,2.547,-2.308,2.728c0.005,0.09,0.008,0.181,0.008,0.272c0,0.264,-0.022,0.527,-0.065,0.785c2.369,0.179,4.464,2.729,4.464,5.519h1C32,27.379,31.389,25.744,30.324,24.489z" fill="#383838"/>
    </g>
  </g>
</svg>
