<?xml version="1.0" encoding="UTF-8"?>
<!DOCTYPE svg PUBLIC "-//W3C//DTD SVG 1.1//EN" "http://www.w3.org/Graphics/SVG/1.1/DTD/svg11.dtd">
<svg version="1.1" id="Layer_1" xmlns="http://www.w3.org/2000/svg" xmlns:xlink="http://www.w3.org/1999/xlink" x="0px" y="0px" width="32px" height="32px" viewBox="0 0 32 32" enable-background="new 0 0 32 32" xml:space="preserve">
  <g id="main">
    <g id="icon">
      <path d="M0.5,28.5L18.24,28.5L17.91,27.93L17.42,27.88L16.97,27.73L16.56,27.5L16.2,27.21L15.91,26.85L15.69,26.43L15.55,25.98L15.5,25.49L15.5,23.57L15.55,23.08L15.69,22.62L15.91,22.21L16.2,21.85L16.56,21.55L16.97,21.33L17.42,21.18L17.91,21.13L18.27,20.51L18.08,20.06L17.99,19.6L17.98,19.14L18.06,18.68L18.23,18.25L18.47,17.85L18.79,17.51L19.19,17.23L20.85,16.26L21.44,16.02L22.07,15.94L22.7,16.02L23.27,16.25L23.77,16.63L24.16,17.12L24.5,17.11L24.88,17.12L25.27,16.63L25.77,16.25L26.34,16.02L26.97,15.93L27.6,16.02L28.19,16.26L29.5,17.02L29.5,6.5L0.5,6.5zz" fill="#FFFFFF"/>
      <path d="M0,6.5L0,28.5L0,29L0.5,29L18.1,29L18.26,28.61L18.28,28.57L17.95,28L1,28L1,7L29,7L29,16.73L29.86,17.22L30,17.33L30,6.5L30,6L29.5,6L0.5,6L0,6zz" fill="#383838"/>
      <path d="M0.5,6.5L29.5,6.5L29.5,1.5L0.5,1.5zz" fill="#92CBEE"/>
      <path d="M0,1.5L0,6.5L0,7L0.5,7L29.5,7L30,7L30,6.5L30,1.5L30,1L29.5,1L0.5,1L0,1zM29,2L29,6L1,6L1,2zz" fill="#0964B0"/>
      <path d="M14,28.1L15,28.1L15,7L14,7zz" fill="#383838"/>
      <path d="M27,9.5L17,9.5zM27,12.5L17,12.5zM27,15.5L17,15.5zz" fill="#FFFFFF"/>
      <path d="M17,10L27,10L27,9L17,9zM17,13L27,13L27,12L17,12zM17,16L21.59,16L22.07,15.94L22.55,16L26.47,16L26.97,15.93L27,15.94L27,15L17,15zM17,19L18.01,19L18.06,18.68L18.23,18.25L18.38,18L17,18zM17,21.32L17.42,21.18L17.91,21.13L17.98,21L17,21zz" fill="#787979"/>
      <path d="M3.698,13.53L3.416,13.62L3.162,13.76L2.939,13.94L2.756,14.16L2.618,14.42L2.53,14.7L2.5,15L2.5,20L2.53,20.3L2.618,20.58L2.756,20.84L2.939,21.06L3.162,21.24L3.416,21.38L3.698,21.47L4,21.5L11,21.5L11.3,21.47L11.58,21.38L11.84,21.24L12.06,21.06L12.24,20.84L12.38,20.58L12.47,20.3L12.5,20L12.5,15L12.47,14.7L12.38,14.42L12.24,14.16L12.06,13.94L11.84,13.76L11.58,13.62L11.3,13.53L11,13.5L4,13.5zz" fill="#92CBEE"/>
      <path d="M3.95,13L3.648,13.03L3.597,13.04L3.549,13.05L3.268,13.14L3.221,13.16L3.178,13.18L2.923,13.32L2.88,13.34L2.843,13.37L2.621,13.55L2.584,13.58L2.554,13.62L2.371,13.84L2.34,13.88L2.317,13.92L2.179,14.18L2.155,14.22L2.14,14.27L2.053,14.55L2.038,14.6L2.033,14.65L2.003,14.95L2,14.97L2,15L2,20L2,20.03L2.003,20.05L2.033,20.35L2.038,20.4L2.053,20.45L2.14,20.73L2.155,20.78L2.179,20.82L2.317,21.08L2.34,21.12L2.371,21.16L2.554,21.38L2.584,21.42L2.621,21.45L2.843,21.63L2.88,21.66L2.923,21.68L3.178,21.82L3.221,21.84L3.268,21.86L3.549,21.95L3.597,21.96L3.648,21.97L3.95,22L3.975,22L4,22L11,22L11.03,22L11.05,22L11.35,21.97L11.4,21.96L11.45,21.95L11.73,21.86L11.78,21.84L11.82,21.82L12.08,21.68L12.12,21.66L12.16,21.63L12.38,21.45L12.42,21.42L12.45,21.38L12.63,21.16L12.66,21.12L12.68,21.08L12.82,20.82L12.84,20.78L12.86,20.73L12.95,20.45L12.96,20.4L12.97,20.35L13,20.05L13,20.03L13,20L13,15L13,14.97L13,14.95L12.97,14.65L12.96,14.6L12.95,14.55L12.86,14.27L12.84,14.22L12.82,14.18L12.68,13.92L12.66,13.88L12.63,13.84L12.45,13.62L12.42,13.58L12.38,13.55L12.16,13.37L12.12,13.34L12.08,13.32L11.82,13.18L11.78,13.16L11.73,13.14L11.45,13.05L11.4,13.04L11.35,13.03L11.05,13L11.03,13L11,13L4,13L3.975,13zM10.98,14L11.2,14.02L11.39,14.08L11.56,14.17L11.71,14.29L11.83,14.44L11.92,14.61L11.98,14.8L12,15.03L12,19.98L11.98,20.2L11.92,20.39L11.83,20.56L11.71,20.71L11.56,20.83L11.39,20.92L11.2,20.98L10.98,21L4.025,21L3.798,20.98L3.612,20.92L3.442,20.83L3.295,20.71L3.173,20.56L3.081,20.39L3.023,20.2L3,19.98L3,15.03L3.023,14.8L3.081,14.61L3.173,14.44L3.295,14.29L3.442,14.17L3.612,14.08L3.798,14.02L4.025,14zz" fill="#0964B0"/>
    </g>
    <g id="overlay">
      <path d="M26.973,31.171c-0.156,0,-0.302,-0.084,-0.379,-0.22l-0.691,-1.188c-0.456,0.122,-0.927,0.184,-1.403,0.184c-0.475,0,-0.945,-0.062,-1.4,-0.183l-0.646,1.176c-0.076,0.141,-0.223,0.228,-0.384,0.228c-0.076,0,-0.152,-0.02,-0.218,-0.059l-1.667,-0.964c-0.206,-0.119,-0.279,-0.376,-0.165,-0.585l0.657,-1.196c-0.678,-0.677,-1.162,-1.514,-1.407,-2.436h-1.334c-0.24,0,-0.436,-0.196,-0.436,-0.436v-1.928c0,-0.24,0.196,-0.436,0.436,-0.436h1.334c0.245,-0.921,0.728,-1.758,1.406,-2.435l-0.651,-1.146c-0.115,-0.207,-0.043,-0.472,0.163,-0.59l1.667,-0.964c0.066,-0.038,0.142,-0.059,0.218,-0.059c0.158,0,0.304,0.086,0.381,0.224l0.644,1.134c0.455,-0.122,0.926,-0.184,1.402,-0.184c0.477,0,0.948,0.062,1.405,0.184l0.689,-1.146c0.078,-0.133,0.222,-0.215,0.376,-0.215c0.076,0,0.152,0.02,0.218,0.059l1.667,0.964c0.101,0.059,0.174,0.153,0.203,0.266c0.03,0.113,0.014,0.231,-0.046,0.332l-0.687,1.143c0.677,0.676,1.159,1.512,1.404,2.432h1.334c0.24,0,0.436,0.196,0.436,0.436v1.928c0,0.24,-0.196,0.436,-0.436,0.436H29.73c-0.245,0.921,-0.728,1.757,-1.405,2.434l0.694,1.193c0.118,0.208,0.046,0.474,-0.161,0.594l-1.667,0.964C27.125,31.151,27.049,31.171,26.973,31.171zM24.5,22.196c-1.287,0,-2.333,1.047,-2.333,2.333c0,1.287,1.047,2.333,2.333,2.333s2.333,-1.047,2.333,-2.333C26.833,23.242,25.787,22.196,24.5,22.196z" fill="#C8C6C4" stroke="#383838" stroke-width="1" stroke-miterlimit="10"/>
    </g>
  </g>
</svg>
