<?xml version="1.0" encoding="UTF-8"?>
<!DOCTYPE svg PUBLIC "-//W3C//DTD SVG 1.1//EN" "http://www.w3.org/Graphics/SVG/1.1/DTD/svg11.dtd">
<svg version="1.1" id="Layer_1" xmlns="http://www.w3.org/2000/svg" xmlns:xlink="http://www.w3.org/1999/xlink" x="0px" y="0px" width="32px" height="32px" viewBox="0 0 32 32" enable-background="new 0 0 32 32" xml:space="preserve">
  <g id="main">
    <g id="icon">
      <path d="M0.5,28.5L16.46,28.5L16.14,27.82L15.79,26.76L15.57,25.65L15.5,24.5L15.55,23.58L15.68,22.69L15.91,21.83L16.21,21L16.59,20.21L17.04,19.47L17.56,18.78L18.14,18.14L18.78,17.56L19.47,17.04L20.21,16.59L21,16.21L21.83,15.91L22.69,15.68L23.58,15.55L24.5,15.5L25.65,15.57L26.76,15.79L27.82,16.14L28.82,16.61L29.5,17.04L29.5,6.5L0.5,6.5zz" fill="#FFFFFF"/>
      <path d="M0,6.5L0,28.5L0,29L0.5,29L16.72,29L16.61,28.82L16.22,28L1,28L1,7L29,7L29,16.72L29.74,17.19L30,17.4L30,6.5L30,6L29.5,6L0.5,6L0,6zz" fill="#383838"/>
      <path d="M0.5,6.5L29.5,6.5L29.5,1.5L0.5,1.5zz" fill="#92CBEE"/>
      <path d="M0,1.5L0,6.5L0,7L0.5,7L29.5,7L30,7L30,6.5L30,1.5L30,1L29.5,1L0.5,1L0,1zM29,2L29,6L1,6L1,2zz" fill="#0964B0"/>
      <path d="M14,28.1L15,28.1L15,7L14,7zz" fill="#383838"/>
      <path d="M27,9.5L17,9.5zM27,12.5L17,12.5zz" fill="#FFFFFF"/>
      <path d="M17,10L27,10L27,9L17,9zM17,13L27,13L27,12L17,12zM17,16L21.57,16L21.83,15.91L22.69,15.68L23.58,15.55L24.5,15.5L25.65,15.57L26.76,15.79L27,15.87L27,15L17,15zM17,19L17.39,19L17.56,18.78L18.14,18.14L18.29,18L17,18zz" fill="#787979"/>
      <path d="M3.698,13.53L3.416,13.62L3.162,13.76L2.939,13.94L2.756,14.16L2.618,14.42L2.53,14.7L2.5,15L2.5,20L2.53,20.3L2.618,20.58L2.756,20.84L2.939,21.06L3.162,21.24L3.416,21.38L3.698,21.47L4,21.5L11,21.5L11.3,21.47L11.58,21.38L11.84,21.24L12.06,21.06L12.24,20.84L12.38,20.58L12.47,20.3L12.5,20L12.5,15L12.47,14.7L12.38,14.42L12.24,14.16L12.06,13.94L11.84,13.76L11.58,13.62L11.3,13.53L11,13.5L4,13.5zz" fill="#92CBEE"/>
      <path d="M3.95,13L3.648,13.03L3.597,13.04L3.549,13.05L3.268,13.14L3.221,13.16L3.178,13.18L2.923,13.32L2.88,13.34L2.843,13.37L2.621,13.55L2.584,13.58L2.554,13.62L2.371,13.84L2.34,13.88L2.317,13.92L2.179,14.18L2.155,14.22L2.14,14.27L2.053,14.55L2.038,14.6L2.033,14.65L2.003,14.95L2,14.97L2,15L2,20L2,20.03L2.003,20.05L2.033,20.35L2.038,20.4L2.053,20.45L2.14,20.73L2.155,20.78L2.179,20.82L2.317,21.08L2.34,21.12L2.371,21.16L2.554,21.38L2.584,21.42L2.621,21.45L2.843,21.63L2.88,21.66L2.923,21.68L3.178,21.82L3.221,21.84L3.268,21.86L3.549,21.95L3.597,21.96L3.648,21.97L3.95,22L3.975,22L4,22L11,22L11.03,22L11.05,22L11.35,21.97L11.4,21.96L11.45,21.95L11.73,21.86L11.78,21.84L11.82,21.82L12.08,21.68L12.12,21.66L12.16,21.63L12.38,21.45L12.42,21.42L12.45,21.38L12.63,21.16L12.66,21.12L12.68,21.08L12.82,20.82L12.84,20.78L12.86,20.73L12.95,20.45L12.96,20.4L12.97,20.35L13,20.05L13,20.03L13,20L13,15L13,14.97L13,14.95L12.97,14.65L12.96,14.6L12.95,14.55L12.86,14.27L12.84,14.22L12.82,14.18L12.68,13.92L12.66,13.88L12.63,13.84L12.45,13.62L12.42,13.58L12.38,13.55L12.16,13.37L12.12,13.34L12.08,13.32L11.82,13.18L11.78,13.16L11.73,13.14L11.45,13.05L11.4,13.04L11.35,13.03L11.05,13L11.03,13L11,13L4,13L3.975,13zM10.98,14L11.2,14.02L11.39,14.08L11.56,14.17L11.71,14.29L11.83,14.44L11.92,14.61L11.98,14.8L12,15.03L12,19.98L11.98,20.2L11.92,20.39L11.83,20.56L11.71,20.71L11.56,20.83L11.39,20.92L11.2,20.98L10.98,21L4.025,21L3.798,20.98L3.612,20.92L3.442,20.83L3.295,20.71L3.173,20.56L3.081,20.39L3.023,20.2L3,19.98L3,15.03L3.023,14.8L3.081,14.61L3.173,14.44L3.295,14.29L3.442,14.17L3.612,14.08L3.798,14.02L4.025,14zz" fill="#0964B0"/>
    </g>
    <g id="overlay">
      <path d="M24.5,17.5c-3.866,0,-7,3.134,-7,7c0,3.866,3.134,7,7,7s7,-3.134,7,-7C31.5,20.634,28.366,17.5,24.5,17.5zM25.1,29h-1.2v-6h1.2V29zM25.1,21.5h-1.2v-1.5h1.2V21.5z" fill="#92CBEE"/>
      <path d="M24.5,17.5c-3.866,0,-7,3.134,-7,7c0,3.866,3.134,7,7,7s7,-3.134,7,-7C31.5,20.634,28.366,17.5,24.5,17.5zM25.1,29h-1.2v-6h1.2V29zM25.1,21.5h-1.2v-1.5h1.2V21.5z" fill="#0964B0" opacity="0.2"/>
      <path d="M24.5,32c-4.135,0,-7.5,-3.365,-7.5,-7.5s3.365,-7.5,7.5,-7.5s7.5,3.365,7.5,7.5S28.635,32,24.5,32zM24.5,18c-3.584,0,-6.5,2.916,-6.5,6.5s2.916,6.5,6.5,6.5s6.5,-2.916,6.5,-6.5S28.084,18,24.5,18z" fill="#0964B0"/>
      <path d="M25.1,29h-1.2v-6h1.2V29zM25.1,21.5h-1.2v-1.5h1.2V21.5z" fill="#FFFFFF"/>
    </g>
  </g>
</svg>
